<svg xmlns="http://www.w3.org/2000/svg" xmlns:xlink="http://www.w3.org/1999/xlink" fill="none" version="1.1" width="13.000001907348633" height="7.800001621246338" viewBox="0 0 13.000001907348633 7.800001621246338"><defs><clipPath id="master_svg0_16_0356"><rect x="0" y="0" width="13.000001907348633" height="7.800001621246338" rx="0"/></clipPath></defs><g clip-path="url(#master_svg0_16_0356)"><rect x="0" y="0" width="13.000001907348633" height="7.800001621246338" rx="0" fill="#000000" fill-opacity="0"/><g><g><g><path d="M0.38160691059303287,0.6252859572238922C0.5979479105930328,0.4089440572238922,0.9364879105930328,0.3892766572238922,1.1750469105930328,0.5662839572238922C1.1750469105930328,0.5662839572238922,1.2433949105930329,0.6252859572238922,1.2433949105930329,0.6252859572238922C1.2433949105930329,0.6252859572238922,6.500004910593033,5.881613957223892,6.500004910593033,5.881613957223892C6.500004910593033,5.881613957223892,11.756624910593032,0.6252859572238922,11.756624910593032,0.6252859572238922C11.972924910593033,0.4089440572238922,12.311524910593032,0.3892766572238922,12.550024910593033,0.5662839572238922C12.550024910593033,0.5662839572238922,12.618424910593033,0.6252859572238922,12.618424910593033,0.6252859572238922C12.834724910593033,0.8416269572238921,12.854424910593034,1.1801669572238922,12.677424910593032,1.4187259572238922C12.677424910593032,1.4187259572238922,12.618424910593033,1.4870739572238922,12.618424910593033,1.4870739572238922C12.618424910593033,1.4870739572238922,6.930894910593032,7.174573957223892,6.930894910593032,7.174573957223892C6.714554910593033,7.390913957223892,6.376014910593033,7.410583957223892,6.137454910593033,7.233573957223892C6.137454910593033,7.233573957223892,6.069104910593033,7.174573957223892,6.069104910593033,7.174573957223892C6.069104910593033,7.174573957223892,0.38160691059303287,1.4870739572238922,0.38160691059303287,1.4870739572238922C0.14363091059303285,1.2490969572238924,0.14363091059303285,0.8632619572238922,0.38160691059303287,0.6252859572238922C0.38160691059303287,0.6252859572238922,0.38160691059303287,0.6252859572238922,0.38160691059303287,0.6252859572238922Z" fill="#868B93" fill-opacity="1"/></g></g></g></g></svg>