<svg xmlns="http://www.w3.org/2000/svg" xmlns:xlink="http://www.w3.org/1999/xlink" fill="none" version="1.1" width="52.5" height="50" viewBox="0 0 52.5 50"><defs><clipPath id="master_svg0_16_1049"><rect x="0" y="0" width="52.5" height="50" rx="0"/></clipPath></defs><g clip-path="url(#master_svg0_16_1049)"><g><path d="M26.25,50C40.7475,50,52.5,38.8071,52.5,25C52.5,11.1929,40.7475,0,26.25,0C11.7525,0,0,11.1929,0,25C0,38.8071,11.7525,50,26.25,50C26.25,50,26.25,50,26.25,50Z" fill="#F5AC6E" fill-opacity="1"/></g><g><path d="M26.2507296875,45.4741903503418C38.1237296875,45.4741903503418,47.7486296875,36.3075903503418,47.7486296875,24.999990350341797C47.7486296875,13.692470350341797,38.1237296875,4.525890350341797,26.2507296875,4.525890350341797C14.3778396875,4.525890350341797,4.7529296875,13.692470350341797,4.7529296875,24.999990350341797C4.7529296875,36.3075903503418,14.3778396875,45.4741903503418,26.2507296875,45.4741903503418C26.2507296875,45.4741903503418,26.2507296875,45.4741903503418,26.2507296875,45.4741903503418Z" fill="#F5AC6E" fill-opacity="1"/></g><g><g><path d="M27.20615240625,15.00281C26.69285840625,15.00281,26.31857740625,14.53878,26.45124490625,14.06658C26.45124490625,14.06658,27.15802640625,11.551656,27.15802640625,11.551656C27.26950940625,11.154848,27.69767640625,10.9193467,28.11432640625,11.0254289C28.53097640625,11.131604,28.77835640625,11.539477,28.66686640625,11.936193C28.66686640625,11.936193,27.96008640625,14.45111,27.96008640625,14.45111C27.86665640625,14.78358,27.55104640625,15.00281,27.20615240625,15.00281C27.20615240625,15.00281,27.20615240625,15.00281,27.20615240625,15.00281Z" fill="#FFFFFF" fill-opacity="1"/></g><g><path d="M32.48641084375,16.349998649253845C31.97164984375,16.349998649253845,31.59892684375,15.884668649253845,31.73159544375,15.413388649253845C31.73159544375,15.413388649253845,32.43935384375,12.899396649253845,32.43935384375,12.899396649253845C32.55103384375,12.502587649253845,32.97929984375,12.267365849253846,33.39594984375,12.373633949253845C33.81259984375,12.479994649253845,34.05968984375,12.887867649253845,33.94799984375,13.284676649253845C33.94799984375,13.284676649253845,33.24024984375,15.798668649253845,33.24024984375,15.798668649253845C33.14671984375,16.130858649253845,32.83120984375,16.349998649253845,32.48641084375,16.349998649253845C32.48641084375,16.349998649253845,32.48641084375,16.349998649253845,32.48641084375,16.349998649253845C32.48641084375,16.349998649253845,32.48641084375,16.349998649253845,32.48641084375,16.349998649253845Z" fill="#FFFFFF" fill-opacity="1"/></g><g><path d="M20.73738640625,37.99315009399414C20.22253040625,37.99315009399414,19.84990940625,37.52782009399414,19.98257680625,37.056540093994144C19.98257680625,37.056540093994144,20.68594040625,34.55835509399414,20.68594040625,34.55835509399414C20.76930940625,34.232856093994144,21.07730640625,33.99094009399414,21.44465640625,33.99094009399414C21.87272640625,33.99094009399414,22.22562640625,34.32006209399414,22.22562640625,34.73518709399414C22.22562640625,34.87418209399414,22.25851640625,34.71612809399414,21.49122640625,37.44182009399414C21.39769640625,37.77401009399414,21.08218640625,37.99315009399414,20.73738640625,37.99315009399414C20.73738640625,37.99315009399414,20.73738640625,37.99315009399414,20.73738640625,37.99315009399414Z" fill="#FFFFFF" fill-opacity="1"/></g><g><path d="M26.01765784375,39.34032910095215C25.50289884375,39.34032910095215,25.13017684375,38.874999100952145,25.26284544375,38.40381910095215C25.26284544375,38.40381910095215,25.97060384375,35.88890010095215,25.97060384375,35.88890010095215C26.08228284375,35.49218510095215,26.51034984375,35.25659120095215,26.92710984375,35.36304520095215C27.34375984375,35.46940610095215,27.59092984375,35.87727810095215,27.47924984375,36.27399410095215C27.47924984375,36.27399410095215,26.77149984375,38.78890910095215,26.77149984375,38.78890910095215C26.67806984375,39.12119910095215,26.36245984375,39.34032910095215,26.01765784375,39.34032910095215C26.01765784375,39.34032910095215,26.01765784375,39.34032910095215,26.01765784375,39.34032910095215Z" fill="#FFFFFF" fill-opacity="1"/></g></g><g><path d="M16.35215,33.59353203125C15.918527,33.48843203125,15.6617878,33.085732031250004,15.777915,32.69373203125C15.777915,32.69373203125,16.397768,30.60173203125,16.397768,30.60173203125C16.491746,30.28453203125,16.80721,30.05523203125,17.17043,30.05733203125C18.20846,30.06343203125,19.16105,29.43953203125,19.44247,28.490732031249998C19.44247,28.490732031249998,22.20189,19.181792031249998,22.20189,19.181792031249998C22.48403,18.21930203125,21.99422,17.26158203125,21.1095,16.80271203125C20.7912,16.63765203125,20.63758,16.29827203125,20.73257,15.97781203125C20.73257,15.97781203125,21.35263,13.88529803125,21.35263,13.88529803125C21.46875,13.49328603125,21.91386,13.26053913125,22.34749,13.36552283125C22.34749,13.36552283125,32.3445,15.78704203125,32.3445,15.78704203125C37.7384,17.09405203125,38.424099999999996,24.69273203125,33.0364,26.84203203125C37.5128,29.70683203125,35.1618,38.14773203125,26.2516,35.992032031250005C26.2375,35.992032031250005,16.367998,33.59723203125,16.35215,33.59353203125C16.35215,33.59353203125,16.35215,33.59353203125,16.35215,33.59353203125C16.35215,33.59353203125,16.35215,33.59353203125,16.35215,33.59353203125ZM32.6961,22.10076203125C33.1113,20.69546203125,32.1858,19.26757203125,30.6488,18.89430203125C30.6488,18.89430203125,27.6554,18.16952203125,27.6554,18.16952203125C27.2218,18.06453203125,26.7762,18.29719203125,26.66,18.689202031249998C26.66,18.689202031249998,25.58207,22.32689203125,25.58207,22.32689203125C25.46595,22.71890203125,25.723300000000002,23.12185203125,26.1569,23.226832031249998C26.1569,23.226832031249998,29.150199999999998,23.95153203125,29.150199999999998,23.95153203125C30.694499999999998,24.32623203125,32.2825,23.49683203125,32.6961,22.10076203125C32.6961,22.10076203125,32.6961,22.10076203125,32.6961,22.10076203125C32.6961,22.10076203125,32.6961,22.10076203125,32.6961,22.10076203125ZM30.6366,30.82553203125C31.0501,29.42853203125,30.133699999999997,27.99383203125,28.5883,27.61903203125C28.5883,27.61903203125,25.006729999999997,26.75193203125,25.006729999999997,26.75193203125C24.57311,26.64693203125,24.12749,26.87963203125,24.01137,27.27153203125C24.01137,27.27153203125,22.72309,31.61823203125,22.72309,31.61823203125C27.4129,32.75453203125,27.328,32.76633203125,27.840600000000002,32.76633203125C29.119799999999998,32.76633203125,30.289099999999998,31.99473203125,30.6366,30.82553203125C30.6366,30.82553203125,30.6366,30.82553203125,30.6366,30.82553203125Z" fill="#FFFFFF" fill-opacity="1"/></g></g></svg>