<svg xmlns="http://www.w3.org/2000/svg" xmlns:xlink="http://www.w3.org/1999/xlink" fill="none" version="1.1" width="16" height="16" viewBox="0 0 16 16"><g transform="matrix(1,0,0,-1,0,32)"><rect x="0.380952388048172" y="16.380952388048172" width="15.238095223903656" height="15.238095223903656" rx="7.619047611951828" fill-opacity="0" stroke-opacity="1" stroke="#E72D04" fill="none" stroke-width="0.761904776096344"/><g transform="matrix(0,1,-1,0,31.861449241638184,9.129027366638184)"><path d="M11.5001049375,23.538368304138185C11.3215796375,23.716898304138184,11.3215796375,24.006338304138183,11.5001049375,24.184868304138185C11.5001049375,24.184868304138185,14.4093409375,27.09410830413818,14.4093409375,27.09410830413818C14.5878709375,27.272628304138184,14.877310937499999,27.272628304138184,15.055840937500001,27.09410830413818C15.2343609375,26.915578304138183,15.2343609375,26.626138304138184,15.055840937500001,26.447608304138186C15.055840937500001,26.447608304138186,12.4698509375,23.861618304138183,12.4698509375,23.861618304138183C12.4698509375,23.861618304138183,15.055840937500001,21.275628304138184,15.055840937500001,21.275628304138184C15.2343609375,21.097098304138182,15.2343609375,20.807658304138183,15.055840937500001,20.629128304138185C14.877310937499999,20.450608304138182,14.5878709375,20.450608304138182,14.4093409375,20.629128304138185C14.4093409375,20.629128304138185,11.5001049375,23.538368304138185,11.5001049375,23.538368304138185C11.5001049375,23.538368304138185,11.5001049375,23.538368304138185,11.5001049375,23.538368304138185ZM17.9185909375,24.318758304138182C18.171060937500002,24.318758304138182,18.375730937500002,24.114088304138185,18.375730937500002,23.861618304138183C18.375730937500002,23.609148304138184,18.171060937500002,23.404478304138184,17.9185909375,23.404478304138184C17.9185909375,23.404478304138184,17.9185909375,24.318758304138182,17.9185909375,24.318758304138182C17.9185909375,24.318758304138182,17.9185909375,24.318758304138182,17.9185909375,24.318758304138182ZM11.8233539375,24.318758304138182C11.8233539375,24.318758304138182,17.9185909375,24.318758304138182,17.9185909375,24.318758304138182C17.9185909375,24.318758304138182,17.9185909375,23.404478304138184,17.9185909375,23.404478304138184C17.9185909375,23.404478304138184,11.8233539375,23.404478304138184,11.8233539375,23.404478304138184C11.8233539375,23.404478304138184,11.8233539375,24.318758304138182,11.8233539375,24.318758304138182C11.8233539375,24.318758304138182,11.8233539375,24.318758304138182,11.8233539375,24.318758304138182Z" fill="#E72D04" fill-opacity="1"/></g></g></svg>