<svg xmlns="http://www.w3.org/2000/svg" xmlns:xlink="http://www.w3.org/1999/xlink" fill="none" version="1.1" width="28.32292366027832" height="30" viewBox="0 0 28.32292366027832 30"><g transform="matrix(0,1,1,0,0,0)"><path d="M0.563258,12.8016C-0.187753,13.5526,-0.187753,14.7703,0.563258,15.5213C0.563258,15.5213,12.8016,27.7597,12.8016,27.7597C13.5526,28.5107,14.7703,28.5107,15.5213,27.7597C16.2723,27.0087,16.2723,25.791,15.5213,25.04C15.5213,25.04,4.64272,14.1615,4.64272,14.1615C4.64272,14.1615,15.5213,3.28289,15.5213,3.28289C16.2723,2.53189,16.2723,1.31426,15.5213,0.563262C14.7703,-0.187754,13.5526,-0.187754,12.8016,0.563262C12.8016,0.563262,0.563258,12.8016,0.563258,12.8016C0.563258,12.8016,0.563258,12.8016,0.563258,12.8016ZM28.0769,16.0845C29.1391,16.0845,30,15.2235,30,14.1615C30,13.0994,29.1391,12.2384,28.0769,12.2384C28.0769,12.2384,28.0769,16.0845,28.0769,16.0845C28.0769,16.0845,28.0769,16.0845,28.0769,16.0845ZM1.92308,16.0845C1.92308,16.0845,28.0769,16.0845,28.0769,16.0845C28.0769,16.0845,28.0769,12.2384,28.0769,12.2384C28.0769,12.2384,1.92308,12.2384,1.92308,12.2384C1.92308,12.2384,1.92308,16.0845,1.92308,16.0845C1.92308,16.0845,1.92308,16.0845,1.92308,16.0845Z" fill="#00C287" fill-opacity="1"/></g></svg>