<svg xmlns="http://www.w3.org/2000/svg" xmlns:xlink="http://www.w3.org/1999/xlink" fill="none" version="1.1" width="28.32292366027832" height="30" viewBox="0 0 28.32292366027832 30"><g transform="matrix(0,-1,1,0,-30,30)"><path d="M0.563258,42.8016C-0.187753,43.5526,-0.187753,44.7703,0.563258,45.5213C0.563258,45.5213,12.8016,57.759699999999995,12.8016,57.759699999999995C13.5526,58.5107,14.7703,58.5107,15.5213,57.759699999999995C16.2723,57.008700000000005,16.2723,55.791,15.5213,55.04C15.5213,55.04,4.64272,44.161500000000004,4.64272,44.161500000000004C4.64272,44.161500000000004,15.5213,33.28289,15.5213,33.28289C16.2723,32.53189,16.2723,31.31426,15.5213,30.563262C14.7703,29.812246,13.5526,29.812246,12.8016,30.563262C12.8016,30.563262,0.563258,42.8016,0.563258,42.8016C0.563258,42.8016,0.563258,42.8016,0.563258,42.8016ZM28.0769,46.0845C29.1391,46.0845,30,45.2235,30,44.161500000000004C30,43.0994,29.1391,42.2384,28.0769,42.2384C28.0769,42.2384,28.0769,46.0845,28.0769,46.0845C28.0769,46.0845,28.0769,46.0845,28.0769,46.0845ZM1.92308,46.0845C1.92308,46.0845,28.0769,46.0845,28.0769,46.0845C28.0769,46.0845,28.0769,42.2384,28.0769,42.2384C28.0769,42.2384,1.92308,42.2384,1.92308,42.2384C1.92308,42.2384,1.92308,46.0845,1.92308,46.0845C1.92308,46.0845,1.92308,46.0845,1.92308,46.0845Z" fill="#E72D04" fill-opacity="1"/></g></svg>