<svg xmlns="http://www.w3.org/2000/svg" xmlns:xlink="http://www.w3.org/1999/xlink" fill="none" version="1.1" width="18.2001953125" height="12.8367919921875" viewBox="0 0 18.2001953125 12.8367919921875"><g><g transform="matrix(-1,0,0,1,36.400001525878906,0)"><path d="M18.375736762939454,7.9941197615814215C18.14142206293945,8.22842976158142,18.14142206293945,8.60832976158142,18.375736762939454,8.84263976158142C18.375736762939454,8.84263976158142,22.194110762939452,12.661019761581422,22.194110762939452,12.661019761581422C22.428430762939453,12.89533976158142,22.808330762939452,12.89533976158142,23.042640762939453,12.661019761581422C23.276960762939453,12.42670976158142,23.276960762939453,12.046809761581422,23.042640762939453,11.812489761581421C23.042640762939453,11.812489761581421,19.648530762939455,8.41837976158142,19.648530762939455,8.41837976158142C19.648530762939455,8.41837976158142,23.042640762939453,5.0242697615814205,23.042640762939453,5.0242697615814205C23.276960762939453,4.789949761581421,23.276960762939453,4.410049761581421,23.042640762939453,4.175739761581421C22.808330762939452,3.941419761581421,22.428430762939453,3.941419761581421,22.194110762939452,4.175739761581421C22.194110762939452,4.175739761581421,18.375736762939454,7.9941197615814215,18.375736762939454,7.9941197615814215C18.375736762939454,7.9941197615814215,18.375736762939454,7.9941197615814215,18.375736762939454,7.9941197615814215ZM26.800000762939455,9.018379761581421C27.131370762939454,9.018379761581421,27.400000762939452,8.74974976158142,27.400000762939452,8.41837976158142C27.400000762939452,8.08700976158142,27.131370762939454,7.81837976158142,26.800000762939455,7.81837976158142C26.800000762939455,7.81837976158142,26.800000762939455,9.018379761581421,26.800000762939455,9.018379761581421C26.800000762939455,9.018379761581421,26.800000762939455,9.018379761581421,26.800000762939455,9.018379761581421ZM18.800000762939455,9.018379761581421C18.800000762939455,9.018379761581421,26.800000762939455,9.018379761581421,26.800000762939455,9.018379761581421C26.800000762939455,9.018379761581421,26.800000762939455,7.81837976158142,26.800000762939455,7.81837976158142C26.800000762939455,7.81837976158142,18.800000762939455,7.81837976158142,18.800000762939455,7.81837976158142C18.800000762939455,7.81837976158142,18.800000762939455,9.018379761581421,18.800000762939455,9.018379761581421C18.800000762939455,9.018379761581421,18.800000762939455,9.018379761581421,18.800000762939455,9.018379761581421Z" fill="#FFFFFF" fill-opacity="1"/></g><g><path d="M0.175736,3.99412C-0.0585787,4.22843,-0.0585787,4.60833,0.175736,4.84264C0.175736,4.84264,3.99411,8.66102,3.99411,8.66102C4.22843,8.89534,4.60833,8.89534,4.84264,8.66102C5.07696,8.42671,5.07696,8.04681,4.84264,7.81249C4.84264,7.81249,1.44853,4.41838,1.44853,4.41838C1.44853,4.41838,4.84264,1.02427,4.84264,1.02427C5.07696,0.78995,5.07696,0.41005,4.84264,0.17574C4.60833,-0.05858,4.22843,-0.05858,3.99411,0.17574C3.99411,0.17574,0.175736,3.99412,0.175736,3.99412C0.175736,3.99412,0.175736,3.99412,0.175736,3.99412ZM8.6,5.01838C8.93137,5.01838,9.2,4.74975,9.2,4.41838C9.2,4.08701,8.93137,3.81838,8.6,3.81838C8.6,3.81838,8.6,5.01838,8.6,5.01838C8.6,5.01838,8.6,5.01838,8.6,5.01838ZM0.6,5.01838C0.6,5.01838,8.6,5.01838,8.6,5.01838C8.6,5.01838,8.6,3.81838,8.6,3.81838C8.6,3.81838,0.6,3.81838,0.6,3.81838C0.6,3.81838,0.6,5.01838,0.6,5.01838C0.6,5.01838,0.6,5.01838,0.6,5.01838Z" fill="#FFFFFF" fill-opacity="1"/></g></g></svg>