<svg xmlns="http://www.w3.org/2000/svg" xmlns:xlink="http://www.w3.org/1999/xlink" fill="none" version="1.1" width="16" height="16" viewBox="0 0 16 16"><g><rect x="0.380952388048172" y="0.380952388048172" width="15.238095223903656" height="15.238095223903656" rx="7.619047611951828" fill-opacity="0" stroke-opacity="1" stroke="#00C287" fill="none" stroke-width="0.761904776096344"/><g transform="matrix(0,1,-1,0,15.861449241638184,-6.870972633361816)"><path d="M11.5001049375,7.538368304138183C11.3215796375,7.716898304138184,11.3215796375,8.006338304138183,11.5001049375,8.184868304138185C11.5001049375,8.184868304138185,14.4093409375,11.094108304138183,14.4093409375,11.094108304138183C14.5878709375,11.272628304138184,14.877310937499999,11.272628304138184,15.055840937500001,11.094108304138183C15.2343609375,10.915578304138183,15.2343609375,10.626138304138184,15.055840937500001,10.447608304138184C15.055840937500001,10.447608304138184,12.4698509375,7.861618304138183,12.4698509375,7.861618304138183C12.4698509375,7.861618304138183,15.055840937500001,5.275628304138183,15.055840937500001,5.275628304138183C15.2343609375,5.097098304138184,15.2343609375,4.807658304138184,15.055840937500001,4.629128304138184C14.877310937499999,4.450608304138184,14.5878709375,4.450608304138184,14.4093409375,4.629128304138184C14.4093409375,4.629128304138184,11.5001049375,7.538368304138183,11.5001049375,7.538368304138183C11.5001049375,7.538368304138183,11.5001049375,7.538368304138183,11.5001049375,7.538368304138183ZM17.9185909375,8.318758304138184C18.171060937500002,8.318758304138184,18.375730937500002,8.114088304138184,18.375730937500002,7.861618304138183C18.375730937500002,7.609148304138184,18.171060937500002,7.404478304138184,17.9185909375,7.404478304138184C17.9185909375,7.404478304138184,17.9185909375,8.318758304138184,17.9185909375,8.318758304138184C17.9185909375,8.318758304138184,17.9185909375,8.318758304138184,17.9185909375,8.318758304138184ZM11.8233539375,8.318758304138184C11.8233539375,8.318758304138184,17.9185909375,8.318758304138184,17.9185909375,8.318758304138184C17.9185909375,8.318758304138184,17.9185909375,7.404478304138184,17.9185909375,7.404478304138184C17.9185909375,7.404478304138184,11.8233539375,7.404478304138184,11.8233539375,7.404478304138184C11.8233539375,7.404478304138184,11.8233539375,8.318758304138184,11.8233539375,8.318758304138184C11.8233539375,8.318758304138184,11.8233539375,8.318758304138184,11.8233539375,8.318758304138184Z" fill="#00C287" fill-opacity="1"/></g></g></svg>